<?xml version="1.0" encoding="UTF-8" standalone="no"?>
<!-- Created with Inkscape (http://www.inkscape.org/) -->

<svg
   width="940"
   height="470"
   viewBox="0 0 248.70834 124.35417"
   version="1.1"
   id="svg5"
   inkscape:version="1.1.1 (3bf5ae0d25, 2021-09-20)"
   sodipodi:docname="login-image.svg"
   inkscape:export-filename="C:\Users\andre\OneDrive\_notebook_andre\finteto\login-background.png"
   inkscape:export-xdpi="96.980003"
   inkscape:export-ydpi="96.980003"
   xmlns:inkscape="http://www.inkscape.org/namespaces/inkscape"
   xmlns:sodipodi="http://sodipodi.sourceforge.net/DTD/sodipodi-0.dtd"
   xmlns="http://www.w3.org/2000/svg"
   xmlns:svg="http://www.w3.org/2000/svg">
  <sodipodi:namedview
     id="namedview7"
     pagecolor="#ffffff"
     bordercolor="#666666"
     borderopacity="1.0"
     inkscape:pageshadow="2"
     inkscape:pageopacity="0.0"
     inkscape:pagecheckerboard="0"
     inkscape:document-units="px"
     showgrid="false"
     width="800mm"
     units="px"
     inkscape:zoom="1.9880331"
     inkscape:cx="291.49414"
     inkscape:cy="291.24264"
     inkscape:window-width="3840"
     inkscape:window-height="1514"
     inkscape:window-x="-11"
     inkscape:window-y="-11"
     inkscape:window-maximized="1"
     inkscape:current-layer="layer1"
     showguides="true"
     inkscape:guide-bbox="true" />
  <defs
     id="defs2">
    <style
       id="style1360">.cls-1{fill:#42414d;}.cls-2{fill:#2614fe;}</style>
    <style
       id="style3202">.cls-1{fill:#fff;}</style>
    <style
       id="style26054">.cls-1{fill:#42414d;}.cls-2{fill:#2614fe;}</style>
  </defs>
  <g
     inkscape:label="Camada 1"
     inkscape:groupmode="layer"
     id="layer1">
    <rect
       style="fill:#2313f3;fill-opacity:1;stroke-width:0.263857"
       id="rect846"
       width="138.57732"
       height="124.65956"
       x="110.16475"
       y="-0.12413267" />
    <text
       xml:space="preserve"
       style="font-style:normal;font-weight:normal;font-size:10.5833px;line-height:1.25;font-family:sans-serif;fill:#ffffff;fill-opacity:1;stroke:none;stroke-width:0.264583"
       x="115.63755"
       y="14.256342"
       id="text2761"><tspan
         sodipodi:role="line"
         id="tspan2759"
         style="fill:#ffffff;fill-opacity:1;stroke-width:0.264583"
         x="115.63755"
         y="14.256342">Financiamento</tspan><tspan
         sodipodi:role="line"
         style="fill:#ffffff;fill-opacity:1;stroke-width:0.264583"
         x="115.63755"
         y="27.485466"
         id="tspan2763">Imobiliário</tspan><tspan
         sodipodi:role="line"
         style="fill:#ffffff;fill-opacity:1;stroke-width:0.264583"
         x="115.63755"
         y="40.714592"
         id="tspan2765">Inteligente</tspan></text>
    <g
       id="g2068"
       transform="translate(3.7041669)">
      <g
         id="pg4"
         transform="matrix(0.06831175,0,0,0.06831175,130.36434,78.309616)"
         style="fill:#ffffff">
        <path
           class="cls-1"
           d="m 38,474.93 h 44.47 a 16.4,16.4 0 0 1 1.76,3.88 18.31,18.31 0 0 1 0.83,5.78 q 0,9.89 -9,9.89 H 38.67 v 83.36 a 24.8,24.8 0 0 1 -4.59,1.3 33.36,33.36 0 0 1 -6.49,0.59 q -6.82,0 -10.12,-2.59 -3.3,-2.59 -3.3,-8.72 V 461 a 49.26,49.26 0 0 1 3.18,-18.6 32.24,32.24 0 0 1 9.07,-12.71 37.67,37.67 0 0 1 14.25,-7.3 67.61,67.61 0 0 1 18.48,-2.36 q 14.61,0 22.37,3.77 7.76,3.77 7.78,10.6 a 12.31,12.31 0 0 1 -1.3,5.8 17.42,17.42 0 0 1 -3.18,4.35 67.41,67.41 0 0 0 -10.36,-3.3 51.36,51.36 0 0 0 -12,-1.4 q -13.19,0 -18.83,5.17 Q 37.99,450.19 38,462 Z"
           id="path3206"
           style="fill:#ffffff" />
        <path
           class="cls-1"
           d="m 114.62,434.19 a 13.73,13.73 0 0 1 4.24,-10.19 14.89,14.89 0 0 1 10.83,-4.12 14.37,14.37 0 1 1 0,28.73 14.94,14.94 0 0 1 -10.83,-4.12 13.75,13.75 0 0 1 -4.24,-10.25"
           id="path3208"
           style="fill:#ffffff" />
        <path
           class="cls-1"
           d="m 141.94,577.84 a 25,25 0 0 1 -4.59,1.3 34.75,34.75 0 0 1 -6.71,0.59 q -6.84,0 -10.13,-2.6 -3.29,-2.6 -3.29,-8.71 v -99.61 l 4.82,-1.18 a 28.93,28.93 0 0 1 6.72,-0.71 q 6.83,0 10,2.6 3.17,2.6 3.17,8.94 z"
           id="path3210"
           style="fill:#ffffff" />
        <path
           class="cls-1"
           d="m 243.56,490 q -6.48,-5.42 -17.56,-5.42 a 47.31,47.31 0 0 0 -14.71,2.12 66.32,66.32 0 0 0 -11.19,4.72 v 86.42 a 24.57,24.57 0 0 1 -4.59,1.3 33.25,33.25 0 0 1 -6.48,0.59 q -6.81,0 -10.12,-2.6 -3.31,-2.6 -3.3,-8.71 V 490.7 a 16,16 0 0 1 2.12,-8.71 24.34,24.34 0 0 1 7.06,-6.59 79.18,79.18 0 0 1 17.2,-7.3 80.67,80.67 0 0 1 24,-3.29 q 22.86,0 35.81,10.24 12.95,10.24 12.94,31 v 71.82 a 24.31,24.31 0 0 1 -4.7,1.3 35.15,35.15 0 0 1 -6.6,0.59 q -6.82,0 -10.13,-2.6 -3.31,-2.6 -3.31,-8.74 V 507 q 0,-11.55 -6.47,-17"
           id="path3212"
           style="fill:#ffffff" />
        <path
           class="cls-1"
           d="m 331.65,558.06 c 3.3,2.36 7.92,3.53 13.89,3.53 a 33.09,33.09 0 0 0 8.48,-1.17 41.17,41.17 0 0 0 7.78,-2.83 24.67,24.67 0 0 1 2.93,4.24 11.59,11.59 0 0 1 1.3,5.65 c 0,4.09 -2.09,7.46 -6.24,10.13 -4.15,2.67 -10.48,4 -19,4 q -17.65,0 -28.14,-7.89 -10.49,-7.89 -10.48,-26 v -110 c 1.1,-0.32 2.67,-0.72 4.71,-1.19 a 29.37,29.37 0 0 1 6.6,-0.7 q 6.81,0 10,2.59 c 2.12,1.73 3.18,4.63 3.18,8.72 v 23.31 h 36.51 a 16.67,16.67 0 0 1 1.76,4 17.74,17.74 0 0 1 0.83,5.41 q 0,10.14 -8.72,10.13 H 326.7 v 56.06 c 0,5.64 1.65,9.65 4.95,12"
           id="path3214"
           style="fill:#ffffff" />
        <path
           class="cls-1"
           d="m 407.48,535.69 q 3.3,13.42 12.83,19.89 9.53,6.47 24.38,6.49 A 51.75,51.75 0 0 0 462.82,559 57,57 0 0 0 476,552.41 c 4.38,2.51 6.59,6 6.59,10.6 a 10.92,10.92 0 0 1 -3.06,7.42 25.68,25.68 0 0 1 -8.36,5.88 54.78,54.78 0 0 1 -12.48,3.89 80.11,80.11 0 0 1 -15.42,1.42 77.52,77.52 0 0 1 -24.85,-3.78 51.31,51.31 0 0 1 -19.19,-11.31 50.51,50.51 0 0 1 -12.37,-18.59 q -4.37,-11.07 -4.36,-25.68 0,-14.13 4.25,-24.84 a 50.84,50.84 0 0 1 11.54,-17.89 49.15,49.15 0 0 1 17.19,-11 59,59 0 0 1 21.19,-3.76 56.28,56.28 0 0 1 20.61,3.64 48.15,48.15 0 0 1 16,10.13 44.41,44.41 0 0 1 10.38,15.46 51.15,51.15 0 0 1 3.66,19.54 q 0,5.9 -2.84,8.6 c -1.88,1.8 -4.62,3 -8.24,3.65 z m 29.2,-51.81 q -12.94,0 -21.55,8.72 -8.61,8.72 -9.06,24.95 L 464,509.31 a 29.72,29.72 0 0 0 -7.78,-18 q -6.83,-7.41 -19.54,-7.41"
           id="path3216"
           style="fill:#ffffff" />
        <path
           class="cls-1"
           d="m 537.86,558.06 c 3.3,2.36 7.92,3.53 13.89,3.53 a 33.09,33.09 0 0 0 8.48,-1.17 40.81,40.81 0 0 0 7.77,-2.83 24.76,24.76 0 0 1 3,4.24 11.7,11.7 0 0 1 1.29,5.65 q 0,6.13 -6.24,10.13 -6.24,4 -19,4 -17.65,0 -28.14,-7.89 -10.49,-7.89 -10.48,-26 v -110 c 1.1,-0.32 2.67,-0.72 4.71,-1.19 a 29.37,29.37 0 0 1 6.6,-0.7 q 6.81,0 10,2.59 c 2.13,1.73 3.18,4.63 3.18,8.72 v 23.31 h 36.51 a 16.67,16.67 0 0 1 1.76,4 17.73,17.73 0 0 1 0.82,5.41 Q 572,490 563.29,490 h -30.38 v 56.06 c 0,5.64 1.65,9.65 5,12"
           id="path3218"
           style="fill:#ffffff" />
        <path
           class="cls-1"
           d="m 696.51,523.21 a 69.54,69.54 0 0 1 -4,24.25 52.62,52.62 0 0 1 -11.19,18.37 48.78,48.78 0 0 1 -17.54,11.66 66.55,66.55 0 0 1 -46.16,0 48.6,48.6 0 0 1 -17.54,-11.66 52.62,52.62 0 0 1 -11.19,-18.37 75.36,75.36 0 0 1 0,-48.51 52,52 0 0 1 11.3,-18.37 49.8,49.8 0 0 1 17.67,-11.65 65.37,65.37 0 0 1 45.68,0 49.33,49.33 0 0 1 17.67,11.77 53.37,53.37 0 0 1 11.3,18.37 68.55,68.55 0 0 1 4,24.14 M 640.7,484.59 q -14.13,0 -22.38,10.12 -8.25,10.12 -8.24,28.5 0,18.38 8,28.37 8,9.99 22.61,10 14.59,0 22.6,-10 8.01,-10 8,-28.37 0,-18.14 -8.13,-28.38 -8.13,-10.24 -22.46,-10.24"
           id="path3220"
           style="fill:#ffffff" />
        <path
           class="cls-1"
           d="m 266.17,304.55 24.11,24.11 a 43.27,43.27 0 0 0 61.18,0 l 4.11,-4.11 a 43.25,43.25 0 0 0 0,-61.18 l -24.1,-24.11 a 43.26,43.26 0 0 0 -61.19,0 l -4.11,4.11 a 43.25,43.25 0 0 0 0,61.18"
           id="path3222"
           style="fill:#ffffff" />
        <path
           class="cls-1"
           d="m 322.29,28.14 -235,235.05 A 45.78,45.78 0 0 0 152,327.92 l 81.55,-81.55 v 0 l 65.3,-65.29 v 0 L 346.89,133 a 12.1,12.1 0 0 1 17.1,0 l 194.14,194.15 a 45.76,45.76 0 0 0 64.74,0 l 0.57,-0.57 a 45.79,45.79 0 0 0 0,-64.74 L 389.74,28.14 a 47.7,47.7 0 0 0 -67.45,0"
           id="path3224"
           style="fill:#ffffff" />
      </g>
      <text
         xml:space="preserve"
         style="font-style:normal;font-weight:normal;font-size:3.175px;line-height:1.25;font-family:sans-serif;fill:#000000;fill-opacity:1;stroke:none;stroke-width:0.264583"
         x="195.73094"
         y="81.329506"
         id="text6126"><tspan
           sodipodi:role="line"
           id="tspan6124"
           style="font-size:3.175px;fill:#ffffff;stroke-width:0.264583"
           x="195.73094"
           y="81.329506">Financiamento + Tech + Teto</tspan><tspan
           sodipodi:role="line"
           style="font-size:3.175px;fill:#ffffff;stroke-width:0.264583"
           x="195.73094"
           y="85.298256"
           id="tspan18450" /><tspan
           sodipodi:role="line"
           style="font-size:3.175px;fill:#ffffff;stroke-width:0.264583"
           x="195.73094"
           y="89.267006"
           id="tspan6128">Finteto remete à habitação,</tspan><tspan
           sodipodi:role="line"
           style="font-size:3.175px;fill:#ffffff;stroke-width:0.264583"
           x="195.73094"
           y="93.235756"
           id="tspan6130">abrigo e amparo. Uma fintech</tspan><tspan
           sodipodi:role="line"
           style="font-size:3.175px;fill:#ffffff;stroke-width:0.264583"
           x="195.73094"
           y="97.204506"
           id="tspan6132">que surgiu para agilizar o</tspan><tspan
           sodipodi:role="line"
           style="font-size:3.175px;fill:#ffffff;stroke-width:0.264583"
           x="195.73094"
           y="101.17326"
           id="tspan6134">financiamento imobiliário no</tspan><tspan
           sodipodi:role="line"
           style="font-size:3.175px;fill:#ffffff;stroke-width:0.264583"
           x="195.73094"
           y="105.14201"
           id="tspan6136">Brasil, com foco em apoiar o</tspan><tspan
           sodipodi:role="line"
           style="font-size:3.175px;fill:#ffffff;stroke-width:0.264583"
           x="195.73094"
           y="109.11076"
           id="tspan6138">adquirente e o ecossistema</tspan><tspan
           sodipodi:role="line"
           style="font-size:3.175px;fill:#ffffff;stroke-width:0.264583"
           x="195.73094"
           y="113.07951"
           id="tspan6140">dos assessores de</tspan><tspan
           sodipodi:role="line"
           style="font-size:3.175px;fill:#ffffff;stroke-width:0.264583"
           x="195.73094"
           y="117.04826"
           id="tspan6142">investimento.</tspan></text>
      <rect
         style="fill:#ffffff;fill-opacity:1;stroke-width:0.338276"
         id="rect16702"
         width="1.9496262"
         height="38.462433"
         x="185.68526"
         y="79.067001"
         ry="1.9177841" />
    </g>
  </g>
</svg>
