<svg id="Layer_1" data-name="Layer 1" xmlns="http://www.w3.org/2000/svg" viewBox="0 0 793.7 141.73"><defs><style>.cls-1{fill:#42414d;}.cls-2{fill:#2614fe;}</style></defs><g id="pg1"><path class="cls-1" d="M279.83,50.7h34.08a12.64,12.64,0,0,1,1.36,3,14.08,14.08,0,0,1,.62,4.42q0,7.57-6.85,7.58H280.37V129.5a18.46,18.46,0,0,1-3.51,1,26.26,26.26,0,0,1-5,.45q-5.23,0-7.75-2c-1.69-1.33-2.53-3.55-2.53-6.68V40.06a37.66,37.66,0,0,1,2.43-14.25A24.75,24.75,0,0,1,271,16.08a28.84,28.84,0,0,1,10.92-5.59,52.17,52.17,0,0,1,14.15-1.81q11.18,0,17.13,2.89t5.95,8.11a9.39,9.39,0,0,1-1,4.42,13.43,13.43,0,0,1-2.44,3.34,51.54,51.54,0,0,0-7.93-2.53,39.28,39.28,0,0,0-9.19-1.08q-10.11,0-14.43,4t-4.33,13Z"/><path class="cls-1" d="M338.53,19.5a10.51,10.51,0,0,1,3.25-7.84,11.41,11.41,0,0,1,8.3-3.16,10.65,10.65,0,0,1,11.17,11,10.64,10.64,0,0,1-11.17,11,11.4,11.4,0,0,1-8.3-3.15,10.53,10.53,0,0,1-3.25-7.85"/><path class="cls-1" d="M359.45,129.49a17.58,17.58,0,0,1-3.52,1,26.43,26.43,0,0,1-5.14.45c-3.48,0-6.07-.66-7.75-2s-2.52-3.54-2.52-6.67V46l3.69-.9a22.13,22.13,0,0,1,5.14-.55c3.49,0,6,.67,7.67,2s2.43,3.61,2.43,6.85Z"/><path class="cls-1" d="M437.25,62.24q-5-4.16-13.43-4.15a36.19,36.19,0,0,0-11.27,1.62A50.79,50.79,0,0,0,404,63.32v66.17a18,18,0,0,1-3.52,1,25.39,25.39,0,0,1-5,.45c-3.48,0-6.07-.66-7.75-2s-2.52-3.54-2.52-6.67V62.78a12.2,12.2,0,0,1,1.62-6.67,18.52,18.52,0,0,1,5.4-5.06A62.3,62.3,0,0,1,423.82,43q17.49,0,27.41,7.83t9.92,23.72v55a17.73,17.73,0,0,1-3.61,1,26.8,26.8,0,0,1-5.05.45c-3.48,0-6.07-.66-7.75-2s-2.52-3.54-2.52-6.67V75.22q0-8.84-5-13"/><path class="cls-1" d="M504.71,114.35c2.53,1.81,6.06,2.7,10.64,2.7a25.59,25.59,0,0,0,6.49-.89,32,32,0,0,0,5.95-2.17,19.24,19.24,0,0,1,2.26,3.24,9,9,0,0,1,1,4.33q0,4.69-4.77,7.76t-14.52,3.06q-13.51,0-21.55-6t-8-19.92V22.21q1.26-.36,3.6-.9a22.53,22.53,0,0,1,5.05-.55c3.49,0,6.05.67,7.67,2s2.43,3.54,2.43,6.67V47.27h27.95a12.43,12.43,0,0,1,1.35,3.06,13.38,13.38,0,0,1,.63,4.15q0,7.77-6.67,7.76H500.92v42.92q0,6.48,3.79,9.19"/><path class="cls-1" d="M562.77,97.22q2.52,10.27,9.83,15.23t18.66,5a39.6,39.6,0,0,0,13.88-2.35,43.3,43.3,0,0,0,10.11-5q5,2.9,5,8.12a8.37,8.37,0,0,1-2.35,5.68,19.86,19.86,0,0,1-6.4,4.51,41.59,41.59,0,0,1-9.56,3,61.28,61.28,0,0,1-11.81,1.08,59.09,59.09,0,0,1-19-2.89,39.26,39.26,0,0,1-14.7-8.65A38.61,38.61,0,0,1,547,106.6a53.35,53.35,0,0,1-3.34-19.66,51.56,51.56,0,0,1,3.24-19,39.19,39.19,0,0,1,8.84-13.71,37.72,37.72,0,0,1,13.17-8.38,45.2,45.2,0,0,1,16.22-2.89,42.9,42.9,0,0,1,15.78,2.8,36.59,36.59,0,0,1,12.26,7.76,34,34,0,0,1,7.94,11.8,39.34,39.34,0,0,1,2.79,15q0,4.52-2.16,6.58a11.86,11.86,0,0,1-6.31,2.8Zm22.36-39.67a22.18,22.18,0,0,0-16.49,6.67q-6.58,6.68-6.95,19.11L606.05,77a22.71,22.71,0,0,0-5.95-13.79q-5.24-5.67-15-5.68"/><path class="cls-1" d="M662.61,114.35c2.52,1.81,6.06,2.7,10.63,2.7a25.61,25.61,0,0,0,6.5-.89,32,32,0,0,0,6-2.17,18.64,18.64,0,0,1,2.25,3.24,8.91,8.91,0,0,1,1,4.33q0,4.69-4.78,7.76t-14.52,3.06q-13.51,0-21.54-6t-8-19.92V22.21c.83-.24,2-.54,3.6-.9a22.4,22.4,0,0,1,5.05-.55c3.48,0,6,.67,7.66,2s2.44,3.54,2.44,6.67V47.27h27.95a12.82,12.82,0,0,1,1.35,3.06,13.68,13.68,0,0,1,.63,4.15q0,7.77-6.67,7.76H658.82v42.92q0,6.48,3.79,9.19"/><path class="cls-1" d="M784.09,87.66A53.4,53.4,0,0,1,781,106.24a40.43,40.43,0,0,1-8.57,14.06A37.24,37.24,0,0,1,759,129.22a51,51,0,0,1-35.34,0,37.07,37.07,0,0,1-13.43-8.92,40.28,40.28,0,0,1-8.57-14.06,53.17,53.17,0,0,1-3.07-18.58,53.11,53.11,0,0,1,3.07-18.57A39.84,39.84,0,0,1,710.33,55a38.43,38.43,0,0,1,13.53-8.92,50.13,50.13,0,0,1,35,0,37.84,37.84,0,0,1,13.53,9A41,41,0,0,1,781,69.18a52.59,52.59,0,0,1,3.07,18.48M741.35,58.09q-10.83,0-17.13,7.75t-6.31,21.82q0,14.07,6.13,21.73t17.31,7.66q11.17,0,17.31-7.66t6.13-21.73q0-13.87-6.22-21.72t-17.22-7.85"/><path class="cls-2" d="M79.54,119.69l8.9,8.9a16,16,0,0,0,22.6,0l1.51-1.51a16,16,0,0,0,0-22.6l-8.9-8.9a16,16,0,0,0-22.6,0L79.54,97.1a16,16,0,0,0,0,22.59"/><path class="cls-2" d="M100.26,17.61l-86.8,86.81a16.9,16.9,0,0,0,23.9,23.91L67.48,98.21h0L91.6,74.09h0l17.75-17.75a4.47,4.47,0,0,1,6.31,0l71.7,71.7a16.91,16.91,0,0,0,23.91,0l.21-.21a16.89,16.89,0,0,0,0-23.91L125.17,17.61a17.61,17.61,0,0,0-24.91,0"/></g></svg>